# xmcd
#
# Track frame offsets: 
#        150
#        26186
#        54279
#        66609
#        84095
#        113229
#        126912
#        144840
#        163817
#        177784
#        195222
#
# Disc length: 2873 seconds
#
# Revision: 0
# Processed by: cddbd v1.5.2PL0 Copyright (c) Steve Scherf et al.
# Submitted via: ExactAudioCopy v0.95b4
#
DISCID=8f0b370b
DTITLE=Various Artist - Clover Country
DYEAR=2008
DGENRE=Country
TTITLE0=Hillary Lindsey - The Clown
TTITLE1=Faith Hill - Stronger (Live)
TTITLE2=Johnny Cash - I Walk The Line
TTITLE3=Reba McEntire - You're Gonna Be
TTITLE4=Alabama - My Home's In Alabama
TTITLE5=Dolly Parton - My Tennessee Mountain Home
TTITLE6=Vince Gill - I Still Believe In You
TTITLE7=Sugarland - Baby Girl
TTITLE8=Glen Campbell - Wichita Lineman
TTITLE9=Martina McBride - So Magical
TTITLE10=Luke Bryan - We Rode in Trucks
EXTD=A portion of the proceeds from the sale of this product will be u
EXTD=sed by National 4-H Council to further its\nsupport of the 4-H Yo
EXTD=uth Development Program.  No endorsement of this product by 4-H i
EXTD=s implied or\nintended.  Authorized by National 4-H Headquarters 
EXTD=at USDA.
EXTT0=
EXTT1=
EXTT2=
EXTT3=
EXTT4=
EXTT5=
EXTT6=
EXTT7=
EXTT8=
EXTT9=
EXTT10=
PLAYORDER=
